<svg width="97" height="26" viewBox="0 0 97 26" fill="none" xmlns="http://www.w3.org/2000/svg">
<path fill-rule="evenodd" clip-rule="evenodd" d="M11.9286 19.7794H8.13811L5.29571 9.09427C5.1608 8.60275 4.87434 8.16822 4.45297 7.96342C3.40139 7.44875 2.24263 7.03915 0.978516 6.83257V6.4212H7.08468C7.92742 6.4212 8.55948 7.03915 8.66482 7.75684L10.1396 15.4644L13.9283 6.4212H17.6134L11.9286 19.7794ZM19.7203 19.7794H16.1405L19.0882 6.4212H22.668L19.7203 19.7794ZM27.2993 10.1219C27.4046 9.40245 28.0367 8.99108 28.7741 8.99108C29.9328 8.88779 31.1951 9.09437 32.2485 9.60725L32.8806 6.73116C31.8272 6.31978 30.6684 6.1132 29.6168 6.1132C26.1424 6.1132 23.6141 7.96352 23.6141 10.5315C23.6141 12.4851 25.405 13.5109 26.6691 14.1289C28.0367 14.745 28.5634 15.1564 28.458 15.7726C28.458 16.6969 27.4046 17.1082 26.353 17.1082C25.0889 17.1082 23.8248 16.8002 22.6679 16.2855L22.0359 19.1634C23.3 19.6762 24.6676 19.8828 25.9317 19.8828C29.8275 19.9843 32.2485 18.1358 32.2485 15.3612C32.2485 11.8672 27.2993 11.6624 27.2993 10.1219ZM44.777 19.7794L41.9346 6.4212H38.8815C38.2494 6.4212 37.6174 6.83257 37.4067 7.44875L32.1432 19.7794H35.8284L36.5639 17.8276H41.0918L41.5132 19.7794H44.777ZM39.4081 10.0188L40.4597 15.0533H37.512L39.4081 10.0188Z" fill="#172B85"/>
<path fill-rule="evenodd" clip-rule="evenodd" d="M84.8012 25.1597C91.5384 25.1597 97 19.7156 97 12.9999C97 6.2843 91.5384 0.840195 84.8012 0.840195C81.7818 0.840195 79.0186 1.93367 76.8884 3.74502C74.7582 1.93374 71.9951 0.840306 68.9758 0.840306C62.2386 0.840306 56.777 6.28441 56.777 13.0001C56.777 19.7157 62.2386 25.1598 68.9758 25.1598C71.9952 25.1598 74.7584 24.0663 76.8885 22.255C79.0187 24.0663 81.7818 25.1597 84.8012 25.1597Z" fill="#ED0006"/>
<path fill-rule="evenodd" clip-rule="evenodd" d="M76.8885 22.2549C79.5114 20.0246 81.1746 16.7059 81.1746 12.9999C81.1746 9.29402 79.5114 5.9753 76.8885 3.74497C79.0187 1.93365 81.7818 0.840195 84.8012 0.840195C91.5384 0.840195 97 6.2843 97 12.9999C97 19.7156 91.5384 25.1597 84.8012 25.1597C81.7818 25.1597 79.0187 24.0662 76.8885 22.2549Z" fill="#F9A000"/>
<path fill-rule="evenodd" clip-rule="evenodd" d="M76.8885 22.2549C79.5114 20.0246 81.1746 16.7059 81.1746 13C81.1746 9.29407 79.5114 5.97538 76.8885 3.74506C74.2657 5.97538 72.6025 9.29407 72.6025 13C72.6025 16.7059 74.2657 20.0246 76.8885 22.2549Z" fill="#FF5E00"/>
</svg>
