<svg width="103" height="98" viewBox="0 0 103 98" fill="none" xmlns="http://www.w3.org/2000/svg">
<path d="M0.950145 91.6849C0.708814 92.1794 0.918791 92.7737 1.41914 93.0124L9.57283 96.902C10.0732 97.1407 10.6744 96.9334 10.9158 96.4389C11.1571 95.9445 10.9471 95.3502 10.4468 95.1115L3.19904 91.654L6.69479 84.4919C6.93613 83.9974 6.72615 83.4031 6.2258 83.1644C5.72545 82.9257 5.1242 83.1331 4.88286 83.6275L0.950145 91.6849ZM58.1178 20.4191L57.8491 21.377L58.1178 20.4191ZM31.5215 77.0239L32.1699 77.7841L31.5215 77.0239ZM81.2971 29.2399L80.6124 28.5114L81.2971 29.2399ZM30.1935 50.5723L31.1327 50.2169L30.1935 50.5723ZM1.85611 92.1171C2.18774 93.0557 2.18776 93.0557 2.18779 93.0557C2.1878 93.0557 2.18783 93.0557 2.18785 93.0557C2.1879 93.0557 2.18796 93.0557 2.18803 93.0556C2.18817 93.0556 2.18836 93.0555 2.18859 93.0555C2.18905 93.0553 2.18968 93.0551 2.19049 93.0548C2.19211 93.0542 2.19442 93.0534 2.19744 93.0524C2.20346 93.0503 2.21227 93.0473 2.22379 93.0432C2.24685 93.0352 2.28082 93.0234 2.32528 93.0078C2.41421 92.9766 2.54515 92.9303 2.71487 92.8696C3.05429 92.7483 3.54889 92.5691 4.17276 92.3368L3.46287 90.4762C2.84791 90.7052 2.36165 90.8813 2.02993 91C1.86408 91.0593 1.73687 91.1042 1.65155 91.1341C1.60889 91.1491 1.5767 91.1603 1.55539 91.1677C1.54473 91.1714 1.53679 91.1742 1.53162 91.176C1.52904 91.1769 1.52715 91.1775 1.52596 91.1779C1.52536 91.1781 1.52494 91.1783 1.52469 91.1784C1.52457 91.1784 1.52449 91.1784 1.52445 91.1785C1.52444 91.1785 1.52443 91.1785 1.52443 91.1785C1.52444 91.1785 1.52445 91.1785 1.52445 91.1785C1.52446 91.1785 1.52448 91.1784 1.85611 92.1171ZM8.09904 90.8141C9.27925 90.3391 10.5884 89.7969 11.9802 89.1956L11.1741 87.3737C9.79946 87.9675 8.50611 88.5033 7.3398 88.9727L8.09904 90.8141ZM15.8231 87.4734C17.0657 86.8951 18.3379 86.2811 19.6134 85.6361L18.6966 83.866C17.4429 84.5 16.1907 85.1044 14.9657 85.6744L15.8231 87.4734ZM23.3407 83.6585C24.5828 82.9653 25.8048 82.2453 26.9809 81.5027L25.8976 79.827C24.7565 80.5475 23.5662 81.249 22.3511 81.9271L23.3407 83.6585ZM30.4919 79.1041C31.0738 78.6702 31.6346 78.23 32.1699 77.7841L30.8732 76.2636C30.3683 76.6842 29.8359 77.1022 29.2799 77.5168L30.4919 79.1041ZM32.1699 77.7841C32.6856 77.3545 33.2105 76.9112 33.743 76.455L32.4252 74.9523C31.8995 75.4026 31.3816 75.8401 30.8732 76.2636L32.1699 77.7841ZM36.8411 73.7335C37.8405 72.8341 38.857 71.8989 39.8826 70.9333L38.4949 69.4934C37.4801 70.4488 36.4747 71.3738 35.4864 72.2632L36.8411 73.7335ZM42.8512 68.0769C43.8222 67.1221 44.7948 66.1451 45.7627 65.1501L44.3123 63.7719C43.355 64.7559 42.3928 65.7225 41.4321 66.6672L42.8512 68.0769ZM48.6028 62.1623C49.5381 61.1548 50.4629 60.134 51.371 59.1043L49.8544 57.7976C48.958 58.814 48.0446 59.8221 47.1202 60.8179L48.6028 62.1623ZM54.0583 55.9695C54.9472 54.9014 55.8124 53.8279 56.6474 52.7537L55.0519 51.5421C54.2315 52.5977 53.3802 53.6539 52.5045 54.7063L54.0583 55.9695ZM59.1229 49.4381C59.9424 48.2917 60.7201 47.1489 61.4475 46.0153L59.7486 44.95C59.0408 46.053 58.282 47.1683 57.4798 48.2905L59.1229 49.4381ZM63.5848 42.4425C64.2842 41.1754 64.9081 39.9253 65.4428 38.7008L63.5958 37.9123C63.0888 39.0732 62.493 40.2683 61.8188 41.4898L63.5848 42.4425ZM66.8755 34.732C67.2815 33.2674 67.5253 31.8451 67.5709 30.4863L65.5603 30.4198C65.521 31.5928 65.3088 32.8587 64.9353 34.2059L66.8755 34.732ZM66.8927 26.1014C66.3549 24.7068 65.4925 23.4623 64.2785 22.404L62.948 23.8948C63.9206 24.7427 64.5928 25.7194 65.013 26.8089L66.8927 26.1014ZM60.4536 20.1469C59.8098 19.8913 59.121 19.6626 58.3865 19.4611L57.8491 21.377C58.5181 21.5605 59.1357 21.7661 59.7045 21.9919L60.4536 20.1469ZM58.3865 19.4611C57.664 19.263 56.9494 19.0966 56.2432 18.9607L55.8596 20.9124C56.5131 21.0381 57.1765 21.1925 57.8491 21.377L58.3865 19.4611ZM51.8519 18.4974C50.3274 18.4722 48.8547 18.5932 47.4399 18.8448L47.7968 20.8016C49.0821 20.573 50.4243 20.4624 51.819 20.4854L51.8519 18.4974ZM43.1736 20.0553C41.7831 20.6064 40.4714 21.29 39.2456 22.0848L40.3494 23.7474C41.4671 23.0227 42.6604 22.4011 43.9229 21.9007L43.1736 20.0553ZM35.794 24.8177C34.7331 25.8308 33.7677 26.9362 32.9047 28.1119L34.5331 29.2798C35.3295 28.1949 36.2183 27.1777 37.192 26.2479L35.794 24.8177ZM30.6257 31.8354C29.9701 33.1386 29.4241 34.4925 28.9952 35.8754L30.9185 36.4588C31.3152 35.1798 31.8204 33.927 32.427 32.721L30.6257 31.8354ZM28.0613 40.1312C27.8718 41.5843 27.8125 43.047 27.8923 44.4959L29.901 44.3884C29.8281 43.0653 29.882 41.7239 30.0565 40.386L28.0613 40.1312ZM28.5722 48.8297C28.7607 49.5398 28.9877 50.2403 29.2543 50.9278L31.1327 50.2169C30.893 49.5986 30.6883 48.9673 30.5179 48.3256L28.5722 48.8297ZM29.2543 50.9278C29.5214 51.6166 29.8258 52.2503 30.1672 52.8294L31.9053 51.8289C31.6233 51.3507 31.3646 50.815 31.1327 50.2169L29.2543 50.9278ZM33.1181 55.9702C34.3506 56.7624 35.7425 57.2026 37.2381 57.3547L37.4434 55.3769C36.2191 55.2524 35.1425 54.9001 34.2144 54.3035L33.1181 55.9702ZM41.4112 57.1322C42.6773 56.8995 43.9929 56.5304 45.3425 56.0493L44.6594 54.179C43.3909 54.6312 42.1817 54.9682 41.0428 55.1775L41.4112 57.1322ZM49.0392 54.5049C50.1953 53.9573 51.3722 53.3448 52.5623 52.6784L51.5702 50.9484C50.4145 51.5956 49.2786 52.1865 48.1694 52.7118L49.0392 54.5049ZM55.9549 50.6604C57.0478 49.9746 58.1475 49.2521 59.2487 48.5006L58.1052 46.8644C57.0231 47.6029 55.9451 48.3111 54.8763 48.9818L55.9549 50.6604ZM62.4609 46.2326C63.5113 45.4673 64.5589 44.6818 65.5992 43.8829L64.3645 42.3128C63.3364 43.1023 62.3024 43.8775 61.2668 44.632L62.4609 46.2326ZM68.6803 41.4623C69.7028 40.6416 70.7137 39.8137 71.7084 38.9851L70.4116 37.4647C69.4256 38.2861 68.4242 39.1062 67.4119 39.9186L68.6803 41.4623ZM74.6945 36.4559C75.7005 35.5903 76.6834 34.7312 77.638 33.8862L76.2956 32.4049C75.3474 33.2442 74.3716 34.0971 73.3733 34.9561L74.6945 36.4559ZM80.5421 31.2825C81.0326 30.8374 81.5127 30.399 81.9817 29.9685L80.6124 28.5114C80.1461 28.9395 79.6687 29.3754 79.1812 29.8178L80.5421 31.2825ZM81.9817 29.9685C82.5394 29.4566 83.084 28.9415 83.6156 28.4242L82.2041 27.0071C81.6861 27.5111 81.1556 28.0128 80.6124 28.5114L81.9817 29.9685ZM86.7419 25.2046C87.7798 24.0738 88.759 22.9422 89.6814 21.8198L88.1197 20.566C87.2194 21.6615 86.264 22.7656 85.2517 23.8685L86.7419 25.2046ZM92.4303 18.2871C93.3544 17.0324 94.2064 15.8037 94.9892 14.616L93.3035 13.5304C92.5387 14.6907 91.7064 15.8911 90.8038 17.1166L92.4303 18.2871ZM97.3538 10.8168C98.1849 9.39999 98.9023 8.08283 99.5125 6.89958L97.7202 5.99623C97.1253 7.14971 96.4252 8.43525 95.6134 9.81903L97.3538 10.8168ZM101.439 2.86538C101.728 2.20413 101.941 1.68262 102.083 1.32413C102.154 1.14488 102.207 1.00637 102.242 0.911497C102.26 0.864064 102.274 0.827539 102.283 0.80228C102.288 0.78965 102.291 0.779849 102.294 0.772901C102.295 0.769422 102.296 0.766666 102.297 0.764629C102.297 0.76361 102.297 0.762768 102.298 0.762113C102.298 0.761792 102.298 0.761505 102.298 0.761266C102.298 0.761142 102.298 0.761042 102.298 0.760946C102.298 0.760898 102.298 0.760835 102.298 0.760806C102.298 0.760744 102.298 0.760691 101.35 0.42842C100.402 0.0961499 100.402 0.0961005 100.402 0.0960511C100.402 0.0960365 100.402 0.0959898 100.402 0.0959697C100.402 0.0959111 100.402 0.0958764 100.402 0.0958457C100.402 0.095795 100.402 0.0957803 100.402 0.0958123C100.402 0.0958777 100.402 0.0961298 100.402 0.0965593C100.401 0.0974064 100.401 0.0989804 100.4 0.101268C100.398 0.105832 100.396 0.11325 100.392 0.123471C100.384 0.143912 100.373 0.175559 100.357 0.218075C100.325 0.303086 100.276 0.431505 100.209 0.600429C100.076 0.938285 99.8714 1.43808 99.5925 2.07668L101.439 2.86538Z" fill="#2568FF"/>
</svg>
