<svg width="146" height="35" viewBox="0 0 146 35" fill="none" xmlns="http://www.w3.org/2000/svg">
<g clip-path="url(#clip0_285_171)">
<path d="M24.71 14.5157C24.71 11.6657 24.71 8.82566 24.71 5.97566C24.71 5.50566 24.75 4.89566 24.29 4.76566C23.9 4.65566 23.74 5.27566 23.52 5.59566C22.83 6.58566 22.18 7.60566 21.49 8.60566C21.22 8.97566 21.1 9.36566 21.1 9.83566C21.11 13.7257 21.1 17.6057 21.12 21.4957C21.12 21.9857 20.98 22.2757 20.55 22.5157C17.98 23.9457 15.42 25.3957 12.86 26.8457L12.83 26.8557C12.72 26.9157 12.63 26.9457 12.53 26.9457C12.43 26.9457 12.34 26.9157 12.23 26.8557C9.67 25.4057 7.1 23.9557 4.53 22.5157H4.52H4.51C4.08 22.2757 3.94 21.9857 3.94 21.4957C3.96 17.6057 3.95 13.7257 3.96 9.83566C3.96 9.37566 3.84 8.98566 3.57 8.59566C2.88 7.60566 2.23 6.58566 1.54 5.59566C1.32 5.27566 1.16 4.65566 0.769999 4.76566C0.309999 4.90566 0.349999 5.51566 0.349999 5.97566C0.349999 8.82566 0.349999 11.6657 0.349999 14.5157C0.359999 17.4257 0.359999 20.3457 0.349999 23.2557C0.349999 24.0457 0.699999 24.6157 1.4 24.9857C1.66 25.1257 1.93 25.2657 2.19 25.4157C2.65 25.6757 3.11 25.9257 3.57 26.1857C6.23 27.6857 8.89 29.1957 11.55 30.6857C11.87 30.8657 12.2 30.9557 12.53 30.9457C12.86 30.9557 13.19 30.8657 13.51 30.6857C16.18 29.1957 18.83 27.6857 21.49 26.1857C21.95 25.9257 22.41 25.6757 22.87 25.4157C23.13 25.2757 23.4 25.1257 23.66 24.9857C24.36 24.6157 24.71 24.0457 24.71 23.2557C24.71 20.3457 24.71 17.4257 24.71 14.5157Z" fill="#2568FF"/>
<path d="M12.47 0.835677C13.01 0.795677 13.47 1.05568 13.95 1.19568C16.86 2.05568 19.75 2.94568 22.65 3.82568C23.21 3.99568 23.22 4.07568 22.9 4.55568C22.37 5.32568 21.85 6.10568 21.34 6.88568C21.18 7.12568 21.01 7.17568 20.74 7.09568C18.17 6.30568 15.6 5.52568 13.03 4.73568C12.67 4.62568 12.34 4.63568 11.98 4.73568C9.43003 5.53568 6.89003 6.30568 4.36003 7.08568C4.09003 7.17568 3.89003 7.14568 3.73003 6.91568C3.16003 6.06568 2.58003 5.21568 2.03003 4.36568C1.77003 3.96568 2.15003 3.90568 2.39003 3.82568C3.17003 3.57568 3.95003 3.34568 4.73003 3.10568C7.14003 2.37568 9.55003 1.63568 11.96 0.905677C12.13 0.865677 12.3 0.855677 12.47 0.835677Z" fill="#2568FF"/>
<path d="M18.1301 11.1957C17.2801 10.9457 16.4301 10.6957 15.5901 10.4357C14.6801 10.1657 13.7701 9.87568 12.8601 9.60568C12.6201 9.53568 12.3901 9.52568 12.1501 9.59568C10.4701 10.1057 8.79009 10.5957 7.12009 11.1257C6.78009 11.2357 6.56009 11.1757 6.38009 10.8957C5.86009 10.0957 5.33009 9.29568 4.81009 8.50568C4.59009 8.17568 4.72009 8.02568 5.05009 7.92568C6.42009 7.51568 7.78009 7.09568 9.15009 6.67568C9.83009 6.46568 10.5201 6.27568 11.2001 6.03568C12.0001 5.75568 12.7801 5.71568 13.6001 5.97568C15.7001 6.63568 17.8001 7.25568 19.9001 7.89568C20.4401 8.06568 20.4701 8.16568 20.1601 8.64568C19.6601 9.39568 19.1601 10.1457 18.6501 10.8957C18.5301 11.0757 18.4001 11.2657 18.1301 11.1957Z" fill="#3C83EC"/>
<path d="M12.5401 10.6557C13.2001 10.6957 13.8601 11.0057 14.5501 11.1757C15.4201 11.3957 16.2801 11.6757 17.1401 11.9557C17.6901 12.1257 17.7101 12.2357 17.4001 12.6957C16.9201 13.4157 16.4301 14.1357 15.9601 14.8657C15.7401 15.2057 15.5001 15.2857 15.1001 15.1457C14.3101 14.8757 13.5101 14.6557 12.7101 14.4057C12.5001 14.3457 12.3101 14.3857 12.1101 14.4457C11.3501 14.6857 10.5801 14.9057 9.81012 15.1457C9.53012 15.2357 9.32011 15.2057 9.15011 14.9457C8.64011 14.1657 8.11011 13.3857 7.59011 12.6157C7.43011 12.3757 7.32011 12.1357 7.71011 12.0157C9.21011 11.5557 10.7001 11.1057 12.2001 10.6557C12.2901 10.6557 12.3801 10.6657 12.5401 10.6557Z" fill="#44AFFF"/>
<path d="M14.2801 16.7557C14.2801 17.8057 13.5701 18.5357 12.5401 18.5357C11.5701 18.5357 10.7401 17.7357 10.7201 16.7757C10.7001 15.8557 11.5701 14.9857 12.5201 14.9757C13.3901 14.9657 14.4001 15.7857 14.2801 16.7557Z" fill="#33D9FF"/>
<path d="M40.7066 23.2303C38.4246 23.2303 36.6884 22.7177 35.4978 21.6925C34.3072 20.6507 33.712 19.1625 33.712 17.2279V5.1981H37.3085V17.2279C37.3085 19.3114 38.4164 20.3531 40.6322 20.3531C41.7401 20.3531 42.5751 20.0637 43.1373 19.485C43.6995 18.9062 43.9806 18.1373 43.9806 17.1782V5.1981H47.5772V17.2279C47.5772 19.146 46.9902 20.6259 45.8161 21.6677C44.6586 22.7094 42.9554 23.2303 40.7066 23.2303Z" fill="white"/>
<path d="M49.9834 22.9327V10.2084H53.2327V11.9199H53.3071C54.1174 10.5474 55.3493 9.86118 57.0029 9.86118C57.7966 9.86118 58.4994 10.0679 59.1112 10.4813C59.7395 10.8781 60.2108 11.4155 60.525 12.0935H60.5746C61.5006 10.6053 62.7738 9.86118 64.3943 9.86118C65.7172 9.86118 66.7424 10.2663 67.47 11.0766C68.2141 11.8703 68.5861 12.9699 68.5861 14.3754V22.9327H65.2129V14.9459C65.2129 13.4908 64.5597 12.7632 63.2534 12.7632C62.5423 12.7632 61.9801 13.0195 61.5667 13.5321C61.1699 14.0282 60.9714 14.6979 60.9714 15.5412V22.9327H57.5982V14.9459C57.5982 13.4908 56.945 12.7632 55.6387 12.7632C54.9607 12.7632 54.4068 13.0195 53.9768 13.5321C53.5634 14.0282 53.3567 14.6979 53.3567 15.5412V22.9327H49.9834Z" fill="white"/>
<path d="M81.6079 21.3949C80.3677 22.6681 78.772 23.3047 76.8208 23.3047C74.8696 23.3047 73.2739 22.6681 72.0337 21.3949C70.7935 20.1051 70.1734 18.5011 70.1734 16.583C70.1734 14.6648 70.7935 13.0691 72.0337 11.7959C73.2739 10.5061 74.8696 9.86118 76.8208 9.86118C78.772 9.86118 80.3677 10.5061 81.6079 11.7959C82.8481 13.0691 83.4681 14.6648 83.4681 16.583C83.4681 18.5011 82.8481 20.1051 81.6079 21.3949ZM76.8208 20.7252C77.8295 20.7252 78.6149 20.3531 79.1771 19.609C79.7559 18.8484 80.0453 17.8397 80.0453 16.583C80.0453 15.3262 79.7559 14.3176 79.1771 13.5569C78.6149 12.7963 77.8295 12.416 76.8208 12.416C75.7956 12.416 75.0019 12.7963 74.4396 13.5569C73.8774 14.301 73.5963 15.3097 73.5963 16.583C73.5963 17.8397 73.8774 18.8484 74.4396 19.609C75.0019 20.3531 75.7956 20.7252 76.8208 20.7252Z" fill="white"/>
<path d="M85.082 27.0997V24.4457H86.2725C87.5293 24.4457 88.1576 23.8669 88.1576 22.7094C88.1576 22.1472 87.8352 20.998 87.1903 19.2617L83.7674 10.2084H87.3143L89.1994 15.9381L90.0179 18.7161H90.0675C90.299 17.6412 90.547 16.7152 90.8116 15.9381L92.5975 10.2084H95.9956L91.5557 23.2551C91.0596 24.7103 90.4974 25.7107 89.8691 26.2564C89.2572 26.8186 88.323 27.0997 87.0663 27.0997H85.082Z" fill="white"/>
<path d="M104.899 22.9327C104.733 22.7177 104.601 22.2464 104.502 21.5189H104.452C104.089 22.0646 103.626 22.4862 103.063 22.7839C102.501 23.0815 101.716 23.2303 100.707 23.2303C99.3676 23.2303 98.2928 22.8913 97.4825 22.2134C96.6723 21.5354 96.2672 20.5763 96.2672 19.3362C96.2672 18.0464 96.7136 17.1038 97.6066 16.5085C98.4995 15.8967 99.7562 15.4751 101.377 15.2436C102.567 15.0782 103.378 14.9128 103.807 14.7475C104.237 14.5656 104.452 14.2514 104.452 13.805C104.452 13.342 104.27 12.9782 103.907 12.7136C103.543 12.4325 103.014 12.2919 102.319 12.2919C100.781 12.2919 99.9629 12.8872 99.8637 14.0778H96.8625C96.9121 12.8707 97.3999 11.8703 98.3259 11.0766C99.2519 10.2828 100.591 9.88598 102.344 9.88598C105.916 9.88598 107.702 11.4486 107.702 14.5739V21.0476C107.702 22.0067 107.85 22.5937 108.148 22.8087V22.9327H104.899ZM101.526 20.874C102.452 20.874 103.179 20.6342 103.708 20.1547C104.254 19.6751 104.527 19.1047 104.527 18.4432V16.5333C104.163 16.7483 103.378 16.9963 102.17 17.2775C101.211 17.4924 100.533 17.7405 100.137 18.0216C99.7397 18.2861 99.5412 18.6995 99.5412 19.2617C99.5412 20.3366 100.203 20.874 101.526 20.874Z" fill="white"/>
<path d="M110.529 22.9327V5.1981H112.885L120.971 17.5255L122.261 19.8074H122.311V5.1981H124.394V22.9327H122.112L113.977 10.5805L112.662 8.37296H112.613V22.9327H110.529Z" fill="white"/>
<path d="M133.026 23.2799C131.125 23.2799 129.612 22.6433 128.487 21.3701C127.38 20.0803 126.826 18.468 126.826 16.5333C126.826 14.6317 127.388 13.036 128.512 11.7463C129.653 10.4399 131.117 9.78677 132.902 9.78677C134.788 9.78677 136.243 10.4482 137.268 11.7711C138.293 13.0774 138.806 14.8219 138.806 17.0046H128.884C128.967 18.3605 129.364 19.4684 130.075 20.3283C130.802 21.1716 131.786 21.5933 133.026 21.5933C134.945 21.5933 136.127 20.7169 136.573 18.9641H138.533C138.235 20.3366 137.607 21.4031 136.648 22.1638C135.689 22.9079 134.482 23.2799 133.026 23.2799ZM135.581 12.4656C134.936 11.738 134.043 11.3742 132.902 11.3742C131.761 11.3742 130.852 11.7545 130.174 12.5152C129.513 13.2758 129.099 14.268 128.934 15.4916H136.648C136.582 14.2018 136.226 13.1931 135.581 12.4656Z" fill="white"/>
<path d="M139.847 11.7463V10.1092H141.708V6.06623H143.717V10.1092H146.197V11.7463H143.717V20.0803C143.717 20.874 144.147 21.2708 145.007 21.2708C145.37 21.2708 145.726 21.213 146.073 21.0972H146.148V22.8335C145.602 22.9492 145.064 23.0071 144.535 23.0071C142.65 23.0071 141.708 22.1803 141.708 20.5267V11.7463H139.847Z" fill="white"/>
<path d="M93.6154 32.2161L94.88 28.9401H95.1503L96.4194 32.2161H96.172L95.7688 31.1668H94.2614L93.8582 32.2161H93.6154ZM94.8387 29.664L94.3393 30.9652H95.6909L95.1961 29.664L95.0174 29.1783H95.0082C94.9472 29.3647 94.8906 29.5265 94.8387 29.664ZM98.569 32.2756C98.1719 32.2756 97.8634 32.1748 97.6435 31.9732C97.4266 31.7716 97.309 31.5074 97.2907 31.1806H97.5335C97.5458 31.4555 97.6435 31.6724 97.8268 31.8312C98.0131 31.987 98.259 32.0649 98.5644 32.0649C98.821 32.0649 99.0318 31.9992 99.1967 31.8678C99.3617 31.7365 99.4441 31.5578 99.4441 31.3318C99.4441 31.1027 99.3739 30.9423 99.2334 30.8507C99.0929 30.756 98.8195 30.6705 98.4132 30.5941C98.0742 30.533 97.8222 30.4399 97.6572 30.3146C97.4923 30.1894 97.4098 29.9985 97.4098 29.7419C97.4098 29.4853 97.5091 29.2776 97.7076 29.1188C97.9092 28.9569 98.1719 28.8759 98.4957 28.8759C98.8195 28.8759 99.0761 28.9599 99.2655 29.1279C99.4579 29.2929 99.5663 29.5128 99.5908 29.7877H99.3525C99.3311 29.5647 99.2425 29.3921 99.0868 29.27C98.931 29.1478 98.7355 29.0867 98.5003 29.0867C98.2376 29.0867 98.0299 29.1478 97.8772 29.27C97.7275 29.3891 97.6527 29.5449 97.6527 29.7373C97.6527 29.9297 97.7183 30.0718 97.8497 30.1634C97.9841 30.252 98.2208 30.3268 98.5599 30.3879C98.7065 30.4154 98.8287 30.4429 98.9264 30.4704C99.0241 30.4948 99.1249 30.5315 99.2288 30.5804C99.3357 30.6262 99.4197 30.6796 99.4808 30.7407C99.5419 30.8018 99.5923 30.8812 99.632 30.979C99.6717 31.0737 99.6916 31.1852 99.6916 31.3134C99.6916 31.5945 99.5877 31.8251 99.38 32.0053C99.1753 32.1855 98.905 32.2756 98.569 32.2756ZM101.813 32.2161H101.589V31.8541H101.58C101.491 31.9854 101.387 32.0878 101.268 32.1611C101.152 32.2344 101.002 32.271 100.819 32.271C100.596 32.271 100.413 32.2069 100.269 32.0786C100.129 31.9473 100.058 31.767 100.058 31.538V29.8473H100.283V31.515C100.283 31.7044 100.333 31.8465 100.434 31.9412C100.535 32.0328 100.677 32.0786 100.86 32.0786C101.068 32.0786 101.24 32.0084 101.378 31.8678C101.518 31.7273 101.589 31.5532 101.589 31.3455V29.8473H101.813V32.2161ZM103.314 32.2756C102.959 32.2756 102.689 32.126 102.503 31.8266H102.494V32.2161H102.269V28.9401H102.494V30.3009H102.503C102.683 29.9649 102.959 29.7969 103.332 29.7969C103.613 29.7969 103.842 29.9084 104.019 30.1313C104.2 30.3513 104.29 30.6537 104.29 31.0385C104.29 31.399 104.201 31.6953 104.024 31.9274C103.85 32.1596 103.613 32.2756 103.314 32.2756ZM103.305 32.0878C103.546 32.0878 103.732 31.9885 103.864 31.79C103.995 31.5914 104.061 31.3425 104.061 31.0431C104.061 30.7224 103.993 30.4673 103.859 30.278C103.725 30.0855 103.538 29.9893 103.3 29.9893C103.043 29.9893 102.84 30.0886 102.691 30.2871C102.544 30.4826 102.471 30.7346 102.471 31.0431C102.471 31.3638 102.544 31.6189 102.691 31.8083C102.837 31.9946 103.042 32.0878 103.305 32.0878ZM105.415 32.2756C105.122 32.2756 104.896 32.2023 104.737 32.0557C104.578 31.906 104.493 31.7212 104.48 31.5013H104.71C104.725 31.6907 104.795 31.8358 104.92 31.9366C105.049 32.0343 105.214 32.0832 105.415 32.0832C105.614 32.0832 105.769 32.0374 105.882 31.9457C105.995 31.8541 106.052 31.7304 106.052 31.5746C106.052 31.4463 106.009 31.3501 105.924 31.286C105.838 31.2188 105.666 31.1546 105.406 31.0935C105.119 31.0263 104.905 30.9469 104.765 30.8553C104.627 30.7636 104.558 30.6216 104.558 30.4292C104.558 30.2367 104.635 30.084 104.787 29.971C104.94 29.8549 105.133 29.7969 105.365 29.7969C105.863 29.7969 106.144 30.0214 106.208 30.4704H105.988C105.973 30.3207 105.91 30.2047 105.8 30.1222C105.69 30.0367 105.545 29.9939 105.365 29.9939C105.178 29.9939 105.035 30.0336 104.934 30.113C104.833 30.1924 104.783 30.2963 104.783 30.4246C104.783 30.5529 104.833 30.6476 104.934 30.7087C105.038 30.7667 105.223 30.8278 105.488 30.8919C105.76 30.9561 105.959 31.0355 106.084 31.1302C106.212 31.2218 106.277 31.3715 106.277 31.5792C106.277 31.7808 106.2 31.9473 106.047 32.0786C105.895 32.21 105.684 32.2756 105.415 32.2756ZM106.628 32.2161V29.8473H106.852V32.2161H106.628ZM106.628 29.3066V28.9401H106.852V29.3066H106.628ZM108.21 32.2756C107.901 32.2756 107.657 32.1611 107.476 31.932C107.299 31.6998 107.211 31.402 107.211 31.0385C107.211 30.6567 107.305 30.3543 107.495 30.1313C107.684 29.9084 107.921 29.7969 108.205 29.7969C108.578 29.7969 108.845 29.9572 109.007 30.278H109.016V28.9401H109.24V32.2161H109.016V31.822H109.007C108.827 32.1244 108.561 32.2756 108.21 32.2756ZM107.637 31.7945C107.771 31.99 107.965 32.0878 108.219 32.0878C108.472 32.0878 108.672 31.9931 108.819 31.8037C108.966 31.6143 109.039 31.3608 109.039 31.0431C109.039 30.7346 108.967 30.4826 108.823 30.2871C108.68 30.0886 108.48 29.9893 108.223 29.9893C107.982 29.9893 107.791 30.0855 107.651 30.278C107.51 30.4704 107.44 30.7255 107.44 31.0431C107.44 31.3455 107.505 31.596 107.637 31.7945ZM109.71 32.2161V29.8473H109.935V32.2161H109.71ZM109.71 29.3066V28.9401H109.935V29.3066H109.71ZM112.223 32.2527C112.128 32.2527 112.051 32.2268 111.993 32.1748C111.938 32.1198 111.911 32.0389 111.911 31.932V31.8495H111.897C111.696 32.1336 111.41 32.2756 111.04 32.2756C110.814 32.2756 110.631 32.2191 110.491 32.1061C110.353 31.99 110.284 31.8266 110.284 31.6158C110.284 31.4814 110.307 31.3684 110.353 31.2768C110.402 31.1821 110.474 31.1088 110.568 31.0569C110.666 31.0049 110.764 30.9683 110.862 30.9469C110.959 30.9225 111.079 30.9026 111.219 30.8873C111.512 30.8599 111.7 30.8293 111.783 30.7957C111.865 30.7621 111.906 30.6919 111.906 30.5849V30.5025C111.906 30.1604 111.708 29.9893 111.311 29.9893C110.868 29.9893 110.63 30.1665 110.596 30.5208H110.367C110.416 30.0382 110.73 29.7969 111.311 29.7969C111.857 29.7969 112.131 30.0367 112.131 30.5162V31.9091C112.131 32.019 112.181 32.074 112.282 32.074C112.31 32.074 112.346 32.0664 112.392 32.0511H112.406V32.2161C112.357 32.2405 112.296 32.2527 112.223 32.2527ZM111.063 32.0878C111.32 32.0878 111.525 32.016 111.677 31.8724C111.83 31.7289 111.906 31.5624 111.906 31.373V30.9332C111.79 30.9912 111.57 31.0385 111.247 31.0752C111.121 31.0905 111.022 31.1057 110.949 31.121C110.879 31.1363 110.805 31.1623 110.729 31.1989C110.652 31.2356 110.597 31.289 110.564 31.3593C110.53 31.4295 110.513 31.5181 110.513 31.625C110.513 31.7838 110.564 31.9014 110.665 31.9778C110.765 32.0511 110.898 32.0878 111.063 32.0878ZM112.888 29.8473V30.3146H112.897C112.982 30.1436 113.094 30.0183 113.231 29.9389C113.354 29.8687 113.499 29.8335 113.667 29.8335V30.058C113.538 30.055 113.427 30.0733 113.332 30.113C113.201 30.1711 113.094 30.2657 113.011 30.3971C112.929 30.5284 112.888 30.6781 112.888 30.8461V32.2161H112.663V29.8473H112.888ZM114.225 32.9996C114.173 32.9996 114.114 32.9904 114.047 32.9721V32.7705H114.056C114.117 32.7857 114.179 32.7934 114.244 32.7934C114.448 32.7934 114.59 32.6788 114.67 32.4497L114.738 32.2527L113.831 29.8473H114.065L114.642 31.4142L114.848 32.0053H114.858C114.931 31.7701 114.995 31.5731 115.05 31.4142L115.6 29.8473H115.829L114.876 32.5001C114.809 32.6865 114.725 32.8163 114.624 32.8896C114.523 32.9629 114.39 32.9996 114.225 32.9996ZM118.561 31.932C118.371 32.1611 118.113 32.2756 117.786 32.2756C117.459 32.2756 117.2 32.1596 117.007 31.9274C116.818 31.6953 116.723 31.3974 116.723 31.034C116.723 30.6705 116.818 30.3742 117.007 30.1451C117.2 29.9129 117.459 29.7969 117.786 29.7969C118.113 29.7969 118.371 29.9114 118.561 30.1405C118.753 30.3696 118.849 30.6674 118.849 31.034C118.849 31.4005 118.753 31.6998 118.561 31.932ZM117.172 31.7854C117.319 31.9839 117.524 32.0832 117.786 32.0832C118.049 32.0832 118.254 31.9839 118.4 31.7854C118.547 31.5868 118.62 31.3364 118.62 31.034C118.62 30.7316 118.547 30.4811 118.4 30.2825C118.254 30.084 118.049 29.9847 117.786 29.9847C117.524 29.9847 117.319 30.084 117.172 30.2825C117.026 30.4811 116.952 30.7316 116.952 31.034C116.952 31.3364 117.026 31.5868 117.172 31.7854ZM118.95 30.0351V29.8473H119.303V29.3983C119.303 29.0806 119.472 28.9218 119.812 28.9218H119.954V29.1188H119.825C119.715 29.1188 119.637 29.1432 119.592 29.1921C119.549 29.2379 119.527 29.3081 119.527 29.4028V29.8473H119.967V30.0351H119.527V32.2161H119.303V30.0351H118.95Z" fill="white"/>
<path d="M121.097 32.2161V28.9401H122.535C122.908 28.9401 123.194 29.0424 123.392 29.2471C123.588 29.4487 123.686 29.6976 123.686 29.9939C123.686 30.3055 123.588 30.5559 123.392 30.7453C123.197 30.9347 122.93 31.0294 122.59 31.0294H121.784V32.2161H121.097ZM121.784 29.5174V30.4887H122.471C122.642 30.4887 122.774 30.446 122.865 30.3604C122.957 30.2719 123.003 30.1512 123.003 29.9985C123.003 29.8457 122.957 29.7281 122.865 29.6457C122.774 29.5601 122.645 29.5174 122.48 29.5174H121.784ZM124.014 32.2161V28.9401H125.517C125.832 28.9401 126.085 29.0241 126.278 29.1921C126.473 29.3601 126.571 29.58 126.571 29.8519C126.571 30.2703 126.371 30.5345 125.971 30.6445V30.6583C126.126 30.7041 126.242 30.7774 126.319 30.8782C126.398 30.9759 126.449 31.1225 126.47 31.318C126.476 31.3913 126.482 31.4784 126.488 31.5792C126.497 31.6769 126.504 31.7548 126.507 31.8129C126.513 31.8709 126.519 31.9289 126.525 31.987C126.534 32.045 126.545 32.0908 126.557 32.1244C126.572 32.155 126.591 32.1748 126.612 32.184V32.2161H125.975C125.963 32.21 125.952 32.1993 125.943 32.184C125.934 32.1657 125.926 32.1412 125.92 32.1107C125.914 32.0801 125.908 32.0496 125.902 32.019C125.899 31.9854 125.894 31.9442 125.888 31.8953C125.885 31.8434 125.882 31.7991 125.879 31.7625C125.876 31.7228 125.871 31.6724 125.865 31.6113C125.862 31.5471 125.859 31.4967 125.856 31.4601C125.829 31.0874 125.615 30.9011 125.215 30.9011H124.678V32.2161H124.014ZM124.678 29.4761V30.3879H125.384C125.558 30.3879 125.691 30.3467 125.783 30.2642C125.877 30.1817 125.925 30.0733 125.925 29.9389C125.925 29.8015 125.88 29.69 125.792 29.6044C125.703 29.5189 125.573 29.4761 125.402 29.4761H124.678ZM128.285 32.271C127.864 32.271 127.543 32.1764 127.323 31.987C127.103 31.7945 126.993 31.5196 126.993 31.1623V28.9401H127.658V31.1623C127.658 31.5471 127.862 31.7396 128.272 31.7396C128.476 31.7396 128.631 31.6861 128.735 31.5792C128.838 31.4723 128.89 31.3302 128.89 31.1531V28.9401H129.555V31.1623C129.555 31.5166 129.446 31.79 129.229 31.9824C129.016 32.1748 128.701 32.271 128.285 32.271ZM130.032 32.2161V28.9401H130.706L131.796 30.7682C131.827 30.8201 131.86 30.8843 131.897 30.9607C131.937 31.037 131.967 31.1012 131.989 31.1531L132.025 31.2264H132.034C132.022 31.0004 132.016 30.811 132.016 30.6583V28.9401H132.671V32.2161H132.03L130.912 30.4063C130.881 30.3543 130.846 30.2917 130.807 30.2184C130.767 30.142 130.736 30.0779 130.715 30.026L130.678 29.9527H130.669C130.681 30.1817 130.687 30.3727 130.687 30.5254V32.2161H130.032ZM133.173 32.2161V28.9401H135.583V29.4991H133.838V30.2321H135.368V30.7774H133.838V31.6617H135.597V32.2161H133.173ZM136.01 32.2161V28.9401H137.288C137.722 28.9401 138.07 29.0974 138.333 29.412C138.596 29.7236 138.727 30.1237 138.727 30.6124C138.727 31.1775 138.553 31.6067 138.205 31.8999C137.951 32.1107 137.627 32.2161 137.233 32.2161H136.01ZM136.674 31.6433H137.188C137.49 31.6433 137.71 31.5563 137.847 31.3822C137.985 31.205 138.053 30.9484 138.053 30.6124C138.053 30.2764 137.98 30.0092 137.834 29.8106C137.69 29.609 137.481 29.5082 137.206 29.5082H136.674V31.6433ZM141.489 32.2161L141.466 31.7762H141.457C141.256 32.1153 140.949 32.2848 140.536 32.2848C140.057 32.2848 139.673 32.126 139.386 31.8083C139.102 31.4906 138.96 31.0844 138.96 30.5895C138.96 30.0275 139.139 29.5815 139.496 29.2516C139.771 29.0012 140.122 28.8759 140.55 28.8759C140.95 28.8759 141.269 28.9752 141.508 29.1737C141.749 29.3723 141.897 29.638 141.952 29.971H141.301C141.262 29.806 141.179 29.6747 141.054 29.5769C140.929 29.4761 140.765 29.4257 140.564 29.4257C140.267 29.4257 140.038 29.5342 139.876 29.7511C139.718 29.9679 139.638 30.2474 139.638 30.5895C139.638 30.9286 139.721 31.2065 139.886 31.4234C140.054 31.6403 140.277 31.7487 140.555 31.7487C140.799 31.7487 141.001 31.6739 141.159 31.5242C141.318 31.3715 141.398 31.1989 141.398 31.0065V30.9881H140.61V30.475H141.989V32.2161H141.489ZM142.453 32.2161V28.9401H144.863V29.4991H143.118V30.2321H144.648V30.7774H143.118V31.6617H144.877V32.2161H142.453Z" fill="white"/>
</g>
<defs>
<clipPath id="clip0_285_171">
<rect width="146" height="34.24" fill="white" transform="translate(0 0.575684)"/>
</clipPath>
</defs>
</svg>
